<svg xmlns="http://www.w3.org/2000/svg" width="699.261" height="483.015" viewBox="0 0 699.261 483.015"><g transform="translate(0 0.001)"><path d="M690.418,119.274,599.7,181.28H732.8Z" transform="translate(-155.947 -31.016)" fill="#f2f2f2"/><path d="M721.062,212.022H572.591L527.329,242.96h214.88Z" transform="translate(-137.127 -55.135)" fill="#f2f2f2"/><path d="M469.631,262.08,326.168,360.14,428.359,509.645,725.622,306.457,695.288,262.08Z" transform="translate(-84.817 -68.152)" fill="#f2f2f2"/><ellipse cx="299.683" cy="14.799" rx="299.683" ry="14.799" transform="translate(99.895 453.415)" fill="#f2f2f2"/><ellipse cx="86.205" cy="11.099" rx="86.205" ry="11.099" transform="translate(0 429.736)" fill="#f2f2f2"/><ellipse cx="10.207" cy="5.909" rx="10.207" ry="5.909" transform="translate(226.718 249.901)" fill="#3f3d56"/><path d="M602.024,380.364H372.638l5.641-20.306,4.878-17.567,8.284-29.815H583.759l8.047,29.815,5.507,20.413Z" transform="translate(-96.901 -81.309)" fill="#3f3d56"/><path d="M599.295,373.382H380.261v-2.847l4.878-17.567H593.788Z" transform="translate(-98.883 -91.787)" opacity="0.1"/><rect width="29.815" height="23.1" transform="translate(222.017 253.93)" fill="#6c63ff"/><rect width="380.339" height="203.063" transform="translate(200.529 265.211)" fill="#3f3d56"/><rect width="380.339" height="50.497" transform="translate(200.529 341.494)" fill="#6c63ff"/><circle cx="94.279" cy="94.279" r="94.279" transform="translate(296.419 272.463)" fill="#2f2e41"/><circle cx="87.564" cy="87.564" r="87.564" transform="translate(303.135 279.178)" fill="#3f3d56"/><circle cx="66.613" cy="66.613" r="66.613" transform="translate(324.085 300.129)" fill="#2f2e41"/><circle cx="6.446" cy="6.446" r="6.446" transform="translate(515.866 272.732)" fill="#6c63ff" opacity="0.2"/><circle cx="6.446" cy="6.446" r="6.446" transform="translate(535.206 272.732)" fill="#6c63ff" opacity="0.5"/><circle cx="6.446" cy="6.446" r="6.446" transform="translate(554.545 272.732)" fill="#6c63ff"/><rect width="45.125" height="20.414" transform="translate(367.867 236.202)" fill="#2f2e41"/><path d="M178.14,353.535l3.95-3.95s10.1-17.557,0-16.24-10.095,10.1-10.095,10.1v10.1Z" transform="translate(-139.07 -178.14)" fill="#9f616a"/><path d="M392.059,414.012l3.95-1.317s10.534-15.8,11.851-8.778-5.267,16.679-5.267,16.679H392.059Z" transform="translate(-196.296 -196.042)" fill="#9f616a"/><rect width="176.884" height="172.495" transform="matrix(0.97, 0.243, -0.243, 0.97, 82.233, -0.001)" fill="#3f3d56"/><rect width="151.91" height="106.451" transform="matrix(0.97, 0.243, -0.243, 0.97, 90.697, 13.171)" fill="#6c63ff" opacity="0.2"/><ellipse cx="17.659" cy="14.704" rx="17.659" ry="14.704" transform="translate(83.854 144.012)" fill="#2f2e41"/><path d="M224.575,494.913s-6.584,18-7.9,63.643-2.634,74.177,3.072,78.128,14.045,3.072,14.484,2.195,2.634-57.937,2.634-57.937l11.412-42.575,12.729,28.969v50.476s9.656,8.778,13.606.439,6.584-50.914,6.584-50.914,4.828-72.422-3.511-81.2S224.575,494.913,224.575,494.913Z" transform="translate(-150.392 -217.251)" fill="#2f2e41"/><path d="M221.349,689.888s-4.828-4.389-8.778,1.317-17.118,18-14.045,20.19,18.873,3.072,20.629.878c0,0,12.729-5.706,12.729-7.023s-1.756-15.8-3.511-15.362S221.788,693.839,221.349,689.888Z" transform="translate(-145.85 -270.455)" fill="#2f2e41"/><path d="M282.314,661.39h8.506s-2.361,6.145-.167,6.145,22.385,16.679,14.484,18.435-30.285-6.145-31.163-8.778,3.072-14.484,3.072-14.484l5.267,2.634Z" transform="translate(-165.556 -263.463)" fill="#2f2e41"/><path d="M249.984,352.577s-.878,14.923-5.267,16.24,14.045,14.923,14.045,14.923l12.729-16.679s-4.828-8.339-3.072-14.484S249.984,352.577,249.984,352.577Z" transform="translate(-157.805 -182.449)" fill="#9f616a"/><path d="M249.984,352.577s-.878,14.923-5.267,16.24,14.045,14.923,14.045,14.923l12.729-16.679s-4.828-8.339-3.072-14.484S249.984,352.577,249.984,352.577Z" transform="translate(-157.805 -182.449)" opacity="0.1"/><path d="M248.389,374.482s-15.362-5.706-17.557-4.389-22.824,10.534-23.263,12.29S210.2,409.6,210.2,409.6s5.267,2.195,5.706,11.412,12.29,23.7,8.339,33.358-7.9,13.168-.439,14.484,41.258-.878,43.014-3.95,11.851-7.462,14.923-6.584-1.756-45.648-1.756-45.648l2.634-6.584,8.778-24.141s-13.168-14.923-25.9-13.606C265.507,368.337,251.461,370.093,248.389,374.482Z" transform="translate(-148.31 -187.236)" fill="#555aa8"/><path d="M203.872,380.348l-6.584-1.317s-6.584,4.389-8.778,4.389-2.195,1.756-2.195,1.756-8.339-12.729-6.584-27.213c0,0-10.1-4.828-10.534-1.317s-3.95,43.453,3.511,46.086,32.919,3.072,32.919,3.072Z" transform="translate(-138.029 -183.885)" fill="#555aa8"/><path d="M310.922,385.568h6.145l16.24,16.24s3.95-.878,5.267,1.756,10.1,2.195,10.1,2.195l23.263,2.195s3.072,10.1.878,11.851S331.99,422,331.99,422s-3.511-1.756-5.706,0-18-9.217-19.751-12.29S310.922,385.568,310.922,385.568Z" transform="translate(-173.974 -191.739)" fill="#555aa8"/><circle cx="16.24" cy="16.24" r="16.24" transform="translate(86.034 144.671)" fill="#9f616a"/><path d="M251.779,324.339s-2.778-7.222,1.25-9.583l1.111,3.194s10.139-6.111,12.777-4.722l-2.5,3.333s11.805,0,12.638,4.583l-4.166.139s4.444,2.917,4.583,7.639l-8.889.556,4.305,2.5s-16.111,2.222-20-4.167Z" transform="translate(-159.575 -172.874)" fill="#2f2e41"/><path d="M244.064,328.843s4.706,4.627,10.8,2.343,0-10.659,0-10.659L250.8,318.5Z" transform="translate(-157.811 -174.297)" fill="#2f2e41"/><rect width="16.279" height="16.279" transform="translate(154.762 101.465) rotate(-27.672)" fill="none" stroke="#f2f2f2" stroke-miterlimit="10" stroke-width="2"/><rect width="16.279" height="16.279" transform="translate(119.115 80.456) rotate(30)" fill="#6c63ff"/><circle cx="8.14" cy="8.14" r="8.14" transform="translate(404.758 204.049)" fill="none" stroke="#3f3d56" stroke-miterlimit="10" stroke-width="2"/><circle cx="8.14" cy="8.14" r="8.14" transform="translate(379.599 172.97)" fill="none" stroke="#3f3d56" stroke-miterlimit="10" stroke-width="2"/><circle cx="8.14" cy="8.14" r="8.14" transform="translate(421.037 149.292)" fill="none" stroke="#3f3d56" stroke-miterlimit="10" stroke-width="2"/><circle cx="8.14" cy="8.14" r="8.14" transform="translate(145.772 59.757)" fill="none" stroke="#f2f2f2" stroke-miterlimit="10" stroke-width="2"/></g></svg>